<svg xmlns="http://www.w3.org/2000/svg" width="443" height="204" fill="none" viewBox="0 0 443 204">
  <path fill="#BEC1C5" d="M187.575 2.5c-11.4 4.6-18.6 13.8-20.6 26.2-1.3 7.9-1.3 140.5 0 147.3 2 10.8 8.6 19.7 18.5 24.8l5 2.7 29.6.3c27.7.3 29.9.2 35-1.7 6.5-2.5 11.8-6.7 16-12.7 6-8.8 5.9-7 5.9-87.1 0-53.3-.3-74.5-1.2-77.7-2.7-10.2-13.5-21-23.5-23.5-2.5-.7-15.4-1.1-31.5-1.1-26.5 0-27.5.1-33.2 2.5Zm65.2 17.3c1.8 1.3 4.1 4.1 5.2 6.2 1.9 3.8 2 6.2 2 76.2v72.3l-2.3 3.9c-4.6 8.1-4.4 8.1-34.8 8.4-26.1.3-27.1.2-30.8-1.9-2.2-1.2-4.9-4-6.2-6.3l-2.4-4.1-.3-70.3c-.2-46.9.1-71.6.8-74.2.6-2.2 2.3-5.3 3.7-7.1 4.8-5.7 6.2-5.9 35.3-5.6 26 .2 26.6.2 29.8 2.5ZM89.126.613c-.8.3-21.1 30.2-45.3 66.4-47.6 71.4-46.7 69.9-41.3 75l2.6 2.4h126l2.4-2.8c3.1-3.7 3.1-8.1-.1-11.2l-2.4-2.5h-53.1c-29.1 0-53-.3-53-.8 0-.4 13.5-21 30-45.7l30-45v34c0 37.2 0 37.3 5.8 39.3 3.5 1.2 8.5-.6 10.1-3.7.8-1.3 1.1-17.7 1.1-50.6 0-51.2-.2-53.2-4.5-54.9-1.9-.7-6.4-.7-8.3.1Zm-.3 162.6c-3.3 2.5-3.9 5.5-3.9 19.7 0 18.1 1.2 21 9.1 21 1.8 0 3.9-1 5.4-2.5 2.4-2.4 2.5-2.8 2.5-18.3 0-15.9 0-15.9-2.6-18.6-2.9-2.8-7.7-3.5-10.5-1.3Zm307.3-162.6c-.8.3-21.1 30.2-45.3 66.4-47.6 71.4-46.7 69.9-41.3 75l2.6 2.4h126l2.4-2.8c3.1-3.7 3.1-8.1-.1-11.2l-2.4-2.5h-53.1c-29.1 0-53-.3-53-.8 0-.4 13.5-21 30-45.7l30-45v34c0 37.2 0 37.3 5.8 39.3 3.5 1.2 8.5-.6 10.1-3.7.8-1.3 1.1-17.7 1.1-50.6 0-51.2-.2-53.2-4.5-54.9-1.9-.7-6.4-.7-8.3.1Zm-.3 162.6c-3.3 2.5-3.9 5.5-3.9 19.7 0 18.1 1.2 21 9.1 21 1.8 0 3.9-1 5.4-2.5 2.4-2.4 2.5-2.8 2.5-18.3 0-15.9 0-15.9-2.6-18.6-2.9-2.8-7.7-3.5-10.5-1.3Z"/>
  <path stroke="#BEC1C5" stroke-linecap="round" stroke-width="10" d="M235.5 78v35m-29-35v35"/>
  <path fill="#BEC1C5" d="M213.5 131.999v7h14v-7h-14Zm14-.999a7 7 0 1 0-14 0h14Zm0 .999V131h-14v.999h14Z"/>
</svg>
